<svg width="236" height="167" viewBox="0 0 236 167" fill="none" xmlns="http://www.w3.org/2000/svg">
<rect x="14.6479" y="107.5" width="13.2163" height="23" fill="#E49635" stroke="black" stroke-width="3"/>
<rect x="192.015" y="110.5" width="13.2163" height="23" fill="#E49635" stroke="black" stroke-width="3"/>
<rect x="7.55518" y="81.5" width="205.785" height="30" rx="3.5" fill="#E39534" stroke="black" stroke-width="3"/>
<rect x="7.55518" y="128.5" width="205.785" height="37" rx="3.5" fill="#E39534" stroke="black" stroke-width="3"/>
<line x1="18.7026" y1="80" x2="18.7026" y2="113" stroke="black" stroke-width="3"/>
<line x1="18.7026" y1="127" x2="18.7026" y2="164" stroke="black" stroke-width="3"/>
<line x1="202.151" y1="127" x2="202.151" y2="164" stroke="black" stroke-width="3"/>
<line x1="202.151" y1="80" x2="202.151" y2="113" stroke="black" stroke-width="3"/>
<path d="M43.5536 128.5C43.5536 128.5 40.9911 125.5 38.9799 120C36.9688 114.5 37.472 112.5 37.472 112.5" stroke="black" stroke-width="3"/>
<path d="M35.9521 113H29.3643V127H41.0197C41.0197 127 39.3241 124.832 38.4859 123C38.0475 122.042 37.8249 121.492 37.4724 120.5C36.996 119.158 36.758 117.891 36.4589 116.5C36.1684 115.149 35.9521 113 35.9521 113Z" fill="#71C46B"/>
<path d="M76.494 128.5C76.494 128.5 75.4805 124 73.4534 120.5C71.4264 117 68.8926 111.5 68.8926 111.5" stroke="black" stroke-width="3"/>
<path d="M38.9937 113H51.6627C54.1964 117 54.7032 120 54.7032 120L56.2235 127C56.2235 127 45.5642 126.999 44.568 127C43.5718 127.001 38.6946 118.339 38.9937 113Z" fill="#71C469"/>
<path d="M128.69 56L126.663 74" stroke="#339037" stroke-width="4"/>
<path d="M67.8794 113H51.6631C51.6631 113 54.115 117.083 54.7036 120C55.1913 122.416 55.9143 126.784 56.2239 127H74.4673C74.5089 125.552 71.4267 120 70.92 119L67.8794 113Z" fill="#9AD58C"/>
<path d="M106.392 129C106.392 129 111.564 124.02 114.5 120.5C117.292 117.153 121.088 111.5 121.088 111.5" stroke="black" stroke-width="3"/>
<path d="M72.9471 116.5C72.2731 115.17 71.2949 113 71.2949 113H118.917C118.917 113 115.531 118.057 112.981 121C110.83 123.483 107.074 127 107.074 127H77.6953C77.6953 127 76.5497 123.76 75.4809 121.5C74.6192 119.678 74.4674 119.5 72.9471 116.5Z" fill="#70C369"/>
<path d="M190.515 113H121.596C121.596 113 118.736 117.735 116.528 120.5C114.361 123.213 109.94 127 110.447 127H190.515V113Z" fill="#429D43"/>
<path d="M154.535 128.5C154.535 128.5 159.417 124.475 162.137 121.5C165.265 118.078 169.231 112 169.231 112" stroke="black" stroke-width="3"/>
<path d="M32.7103 81.7778C23.7663 67.3137 3.82494 48.7777 2.30463 46.7778C0.78432 44.7778 5.34519 41.7777 7.37223 41.2778C9.39928 40.7778 17.5646 49.8104 24.0953 55.2778C16.575 44.3431 4.83843 29.2778 4.83843 27.2778C4.83843 25.2777 11.4263 21.2778 13.4534 21.2778C15.4804 21.2778 33.7238 51.2778 33.7238 51.2778C33.7238 51.2778 24.0953 24.7778 24.0953 22.7778C24.0953 20.7778 30.6832 20.7778 31.6967 21.2778C32.7103 21.7778 42.3387 52.2778 42.3387 52.2778L53.4874 81.7778H38.2846H32.7103Z" fill="#4CAD4C"/>
<path d="M24.0953 55.2778C17.5646 49.8104 9.39928 40.7778 7.37223 41.2778C5.34519 41.7777 0.784319 44.7778 2.30463 46.7778C3.82494 48.7777 23.7663 67.3137 32.7103 81.7778H38.2846M24.0953 55.2778C16.575 44.3431 4.83843 29.2778 4.83843 27.2778C4.83843 25.2777 11.4263 21.2778 13.4534 21.2778C15.4804 21.2778 33.7238 51.2778 33.7238 51.2778C33.7238 51.2778 24.0953 24.7778 24.0953 22.7778C24.0953 20.7778 30.6832 20.7778 31.6967 21.2778C32.7103 21.7778 42.3387 52.2778 42.3387 52.2778L53.4874 81.7778H38.2846M24.0953 55.2778C29.6366 65.6267 38.2846 81.7778 38.2846 81.7778" stroke="black" stroke-width="3"/>
<path d="M46.7144 56.3196C47.4555 50.4912 47.8257 46.2073 52.2887 42.3196C56.3245 38.8041 58.5057 38.1765 63.8241 39C67.8843 33.0163 70.921 30.1201 77.12 26.3196C86.7249 20.4309 96.6705 19.6931 107.526 22.8196C126.662 28.3314 133.877 47.3196 133.877 47.3196C133.877 47.3196 130.419 46.4388 127.796 47.3196C123.952 48.6105 122.392 50.4506 120.195 53.8196C114.801 62.0883 117.034 81.5 117.034 81.5H67.3714H54.1955C54.1955 81.5 45.5062 65.8209 46.7144 56.3196Z" fill="#70C56B"/>
<path d="M63.8241 39C58.5057 38.1765 56.3245 38.8041 52.2887 42.3196C47.8257 46.2073 47.4555 50.4912 46.7144 56.3196C45.5062 65.8209 54.1955 81.5 54.1955 81.5H67.3714M63.8241 39C61.603 46.1559 61.0209 50.5208 61.2903 58C61.6054 66.7469 67.3714 81.5 67.3714 81.5M63.8241 39C67.8843 33.0163 70.921 30.1201 77.12 26.3196C86.7249 20.4309 96.6705 19.6931 107.526 22.8196C126.662 28.3314 133.877 47.3196 133.877 47.3196C133.877 47.3196 130.419 46.4388 127.796 47.3196C123.952 48.6105 122.392 50.4506 120.195 53.8196C114.801 62.0883 117.034 81.5 117.034 81.5H67.3714" stroke="black" stroke-width="3"/>
<path d="M152.28 32C151.011 34.7881 148.733 39 148.733 39C148.733 39 149.148 46.6806 147.212 51C145.947 53.8237 144.433 54.9616 142.652 57.5C140.87 60.0384 139.6 61.2955 138.091 64C136.637 66.6053 135.945 68.1599 135.05 71C134.151 73.8523 133.25 81.5 133.25 81.5H117.034L116.527 74.5C116.527 74.5 116.326 67.4668 117.034 64C118.239 58.0927 119.185 53.7314 123.395 49.5C124.781 48.1065 125.616 47.2376 127.449 46.5C130.569 45.244 133.25 48.5 133.25 48.5C133.25 48.5 129.281 36.9409 123.395 32C118.25 27.6815 108.699 23 108.699 23C108.699 23 106.682 17.6925 107.685 14.5C108.482 11.9632 109.351 10.2249 111.739 9C114.745 7.45854 117.406 8.35432 120.354 10C123.045 11.5018 125.422 16 125.422 16C125.422 16 124.421 10.4741 125.928 7.5C127.436 4.52586 129.146 2 132.516 2C135.886 2 136.949 4.94366 139.104 7.5C141.934 10.8566 144.172 17.5 144.172 17.5C144.172 17.5 145.155 13.156 147.212 11.5C149.558 9.61188 152.242 8.42414 154.814 10C156.999 11.3392 157.073 13.4761 157.348 16C157.65 18.7798 156.608 20.3125 155.827 23C154.774 26.6252 153.846 28.5599 152.28 32Z" fill="#4DAD4B"/>
<path d="M148.733 39C148.733 39 151.011 34.7881 152.28 32C153.846 28.5599 154.774 26.6252 155.827 23C156.608 20.3125 157.65 18.7798 157.348 16C157.073 13.4761 156.999 11.3392 154.814 10C152.242 8.42414 149.558 9.61188 147.212 11.5C145.155 13.156 144.172 17.5 144.172 17.5C144.172 17.5 141.934 10.8566 139.104 7.5C136.949 4.94366 135.886 2 132.516 2C129.146 2 127.436 4.52586 125.928 7.5C124.421 10.4741 125.422 16 125.422 16C125.422 16 123.045 11.5018 120.354 10C117.406 8.35432 114.745 7.45854 111.739 9C109.351 10.2249 108.482 11.9632 107.685 14.5C106.682 17.6925 108.699 23 108.699 23C108.699 23 118.25 27.6815 123.395 32C129.281 36.9409 133.25 48.5 133.25 48.5M148.733 39C148.733 39 143.007 37.2995 140.118 39C137.077 40.7894 133.25 48.5 133.25 48.5M148.733 39C148.733 39 149.148 46.6806 147.212 51C145.947 53.8237 144.433 54.9616 142.652 57.5C140.87 60.0384 139.6 61.2955 138.091 64C136.637 66.6053 135.945 68.1599 135.05 71C134.151 73.8523 133.25 81.5 133.25 81.5H117.034L116.527 74.5C116.527 74.5 116.326 67.4668 117.034 64C118.239 58.0927 119.185 53.7314 123.395 49.5C124.781 48.1065 125.616 47.2376 127.449 46.5C130.569 45.244 133.25 48.5 133.25 48.5" stroke="black" stroke-width="3"/>
<path d="M199.636 81.5H133.25C133.25 81.5 135.808 67.4376 139.838 61.1851C142.546 56.9843 148.453 51.6851 148.453 51.6851C148.453 51.6851 153.726 46.5693 158.082 45.6851C162.607 44.7665 169.737 47.6851 169.737 47.6851C169.737 47.6851 172.233 41.3391 175.818 39.6851C179.045 38.1965 184.94 39.6851 184.94 39.6851C184.94 39.6851 186.962 36.1798 188.994 34.6851C191.353 32.95 193.16 32.4587 196.089 32.1851L196.217 32.1731C198.935 31.9188 200.849 31.7397 203.183 33.1851C206.333 35.1354 207.237 41.6851 207.237 41.6851C207.237 41.6851 215.141 41.0285 219.4 43.1851C222.763 44.8886 224.851 46.3253 226.494 49.6851C227.967 52.6953 227.508 58.1851 227.508 58.1851C227.508 58.1851 230.725 59.5411 232.069 61.1851C233.523 62.9641 233.856 64.4119 234.096 66.6851C234.434 69.8881 234.571 72.6178 232.069 74.6851C229.337 76.9413 226.452 75.3103 222.947 74.6851C219.186 74.0142 217.647 71.2446 213.825 71.1851C211.185 71.144 209.605 71.5317 207.237 72.6851C203.597 74.459 199.636 81.5 199.636 81.5Z" fill="#4CAD4C" stroke="black" stroke-width="3"/>
<path d="M149.121 50.1034C149.121 50.1034 148.007 39.5674 151.655 34.6034C154.783 30.3469 157.994 27.9587 163.31 27.6034C166.331 27.4016 170.912 29.1034 170.912 29.1034C170.912 29.1034 174.037 23.6143 177.5 23.1034C180.162 22.7107 181.982 23.4491 184.088 25.1034C187.732 27.9662 185.954 34.6034 185.954 34.6034L184.941 39C184.941 39 181.95 37.491 179.02 38.1034C175.029 38.9378 173.512 41.5016 170.912 44.6034C170.281 45.3557 169.898 47.5 168.378 46.5C168.378 46.5 164.225 44.3746 160.777 44.6034C157.402 44.8273 152.668 47.6034 152.668 47.6034L149.121 50.1034Z" fill="#487A4D"/>
<path d="M170.912 29.1034C170.912 29.1034 166.331 27.4016 163.31 27.6034C157.994 27.9587 154.783 30.3469 151.655 34.6034C148.007 39.5674 149.121 50.1034 149.121 50.1034L152.668 47.6034C152.668 47.6034 157.402 44.8273 160.777 44.6034C164.225 44.3746 168.378 46.5 168.378 46.5M170.912 29.1034C170.912 29.1034 174.037 23.6143 177.5 23.1034C180.162 22.7107 181.982 23.4491 184.088 25.1034C187.732 27.9662 185.954 34.6034 185.954 34.6034L184.941 39C184.941 39 181.95 37.491 179.02 38.1034C175.029 38.9378 173.512 41.5016 170.912 44.6034C170.281 45.3557 169.898 47.5 168.378 46.5M170.912 29.1034C170.912 29.1034 168.804 33.5448 168.378 36.6034C167.836 40.4916 168.378 46.5 168.378 46.5" stroke="black" stroke-width="3"/>
<path d="M98.2835 72.5C95.7497 86.5 94.3416 62.4066 89.6685 57.5C85.9819 53.6292 76.9995 49 76.9995 49M98.2835 72.5C99.5016 66.3188 99.9491 62.7869 100.31 56.5C100.613 51.2364 100.31 41 100.31 41M98.2835 72.5C100.444 66.6493 103.583 62.8151 108.925 59.5C111.324 58.0116 115.007 54.5 115.007 54.5" stroke="#54B252" stroke-width="4" stroke-linecap="round"/>
<path d="M128.69 78C128.69 78 127.718 70.3421 127.676 67C127.63 63.2698 129.197 54 129.197 54" stroke="#339037" stroke-width="4" stroke-linecap="round"/>
<path d="M180.38 64L179.308 62.3113L180.38 64ZM192.542 58.5L193.14 60.4086L193.14 60.4086L192.542 58.5ZM207.404 57.9931C208.505 57.9014 209.323 56.9347 209.231 55.834C209.139 54.7332 208.173 53.9152 207.072 54.0069L207.404 57.9931ZM159.096 76C160.041 77.7627 160.041 77.7627 160.041 77.7626C160.041 77.7626 160.041 77.7625 160.041 77.7623C160.042 77.762 160.043 77.7617 160.044 77.7611C160.045 77.7601 160.048 77.7586 160.052 77.7566C160.06 77.7525 160.071 77.7466 160.085 77.7387C160.115 77.7229 160.158 77.6995 160.215 77.6689C160.329 77.6077 160.497 77.5175 160.713 77.4014C161.143 77.1693 161.765 76.8336 162.53 76.419C164.06 75.5899 166.162 74.4445 168.453 73.1795C173.015 70.6601 178.39 67.6315 181.451 65.6887L180.38 64L179.308 62.3113C176.366 64.1782 171.098 67.1496 166.519 69.6778C164.24 70.9366 162.147 72.0768 160.624 72.9025C159.862 73.3152 159.244 73.6492 158.815 73.8799C158.601 73.9952 158.435 74.0847 158.322 74.1453C158.266 74.1756 158.223 74.1986 158.194 74.2141C158.18 74.2218 158.169 74.2277 158.162 74.2315C158.158 74.2335 158.155 74.2349 158.153 74.2359C158.153 74.2364 158.152 74.2367 158.151 74.2369C158.151 74.2371 158.151 74.2371 158.151 74.2372C158.151 74.2372 158.151 74.2373 159.096 76ZM180.38 64L181.451 65.6887C185.664 63.0153 188.283 61.9292 193.14 60.4086L192.542 58.5L191.944 56.5914C186.84 58.1896 183.884 59.4077 179.308 62.3113L180.38 64ZM192.542 58.5L193.14 60.4086C195.747 59.5922 199.282 58.9847 202.243 58.5797C203.707 58.3794 205.002 58.2323 205.93 58.1354C206.394 58.087 206.765 58.0512 207.019 58.0276C207.146 58.0158 207.244 58.007 207.309 58.0013C207.342 57.9984 207.366 57.9963 207.382 57.995C207.39 57.9943 207.396 57.9938 207.4 57.9935C207.401 57.9933 207.403 57.9932 207.403 57.9931C207.404 57.9931 207.404 57.9931 207.404 57.9931C207.404 57.9931 207.404 57.9931 207.404 57.9931C207.404 57.9931 207.404 57.9931 207.238 56C207.072 54.0069 207.072 54.0069 207.072 54.0069C207.071 54.0069 207.071 54.007 207.071 54.007C207.07 54.007 207.07 54.0071 207.069 54.0071C207.068 54.0073 207.066 54.0074 207.063 54.0076C207.058 54.0081 207.051 54.0087 207.041 54.0095C207.022 54.0111 206.995 54.0135 206.959 54.0167C206.887 54.0229 206.783 54.0323 206.649 54.0447C206.382 54.0696 205.995 54.1068 205.515 54.157C204.555 54.2573 203.216 54.4093 201.7 54.6166C198.701 55.0271 194.888 55.6696 191.944 56.5914L192.542 58.5Z" fill="#339037"/>
<path d="M159.602 76C159.602 76 158.899 74.2608 161.963 67.8994C164.205 63.2432 165.957 60.8134 169.354 56.8966" stroke="#339037" stroke-width="4" stroke-linecap="round"/>
<path d="M91.6962 124.5L95.2436 115.5" stroke="#54B252" stroke-width="4" stroke-linecap="round"/>
<path d="M126.953 122.635C125.924 123.034 125.412 124.193 125.811 125.223C126.211 126.253 127.369 126.764 128.399 126.365L126.953 122.635ZM133.757 121L132.41 119.522L132.41 119.522L133.757 121ZM127.676 124.5C128.399 126.365 128.399 126.365 128.4 126.365C128.4 126.365 128.4 126.364 128.4 126.364C128.401 126.364 128.401 126.364 128.402 126.364C128.403 126.363 128.404 126.363 128.406 126.362C128.409 126.361 128.413 126.359 128.418 126.357C128.428 126.354 128.442 126.348 128.459 126.341C128.493 126.328 128.542 126.308 128.603 126.283C128.726 126.233 128.9 126.161 129.113 126.069C129.54 125.884 130.132 125.617 130.797 125.283C132.09 124.634 133.808 123.66 135.105 122.478L133.757 121L132.41 119.522C131.526 120.328 130.204 121.104 129.002 121.708C128.419 122.001 127.899 122.236 127.526 122.397C127.34 122.477 127.192 122.539 127.093 122.579C127.043 122.599 127.006 122.614 126.982 122.624C126.97 122.629 126.962 122.632 126.957 122.634C126.955 122.635 126.953 122.635 126.953 122.636C126.952 122.636 126.952 122.636 126.952 122.636C126.952 122.636 126.953 122.636 126.953 122.635C126.953 122.635 126.953 122.635 126.953 122.635C126.953 122.635 126.953 122.635 127.676 124.5ZM133.757 121L135.105 122.478C136.195 121.484 137.802 119.628 138.865 118.377C139.432 117.71 139.835 117.226 140.036 116.994C140.093 116.927 140.092 116.931 140.064 116.959C140.058 116.965 140.018 117.007 139.96 117.058C139.935 117.08 139.861 117.144 139.755 117.215C139.704 117.249 139.597 117.318 139.45 117.382C139.352 117.425 138.977 117.588 138.47 117.543C138.226 117.506 137.715 117.32 137.462 117.162C137.231 116.963 136.892 116.509 136.781 116.27C136.583 115.754 136.659 115.314 136.678 115.203C136.729 114.917 136.834 114.71 136.844 114.689C136.897 114.577 136.95 114.497 136.952 114.492C136.98 114.449 136.947 114.499 136.726 114.79L138.318 116L139.91 117.21C140.069 117.001 140.24 116.777 140.325 116.643C140.336 116.627 140.393 116.538 140.449 116.421C140.461 116.397 140.566 116.188 140.617 115.9C140.637 115.789 140.713 115.348 140.514 114.832C140.403 114.593 140.064 114.138 139.832 113.939C139.58 113.781 139.068 113.595 138.824 113.558C138.317 113.513 137.941 113.676 137.843 113.719C137.695 113.784 137.587 113.853 137.535 113.888C137.427 113.96 137.35 114.026 137.323 114.05C137.259 114.106 137.211 114.156 137.194 114.173C137.127 114.243 137.052 114.329 137.008 114.38C136.802 114.619 136.336 115.175 135.817 115.786C134.709 117.089 133.275 118.733 132.41 119.522L133.757 121Z" fill="#339037"/>
<g clip-path="url(#clip0_366_158)">
<rect width="180.407" height="27" transform="translate(20.2441 83)" fill="#F5B55F"/>
<path d="M20.2441 88H43.7441C44.5726 88 45.2441 88.6716 45.2441 89.5V89.5C45.2441 90.3284 44.5726 91 43.7441 91H20.2441V88Z" fill="#E19E43"/>
<path d="M156.244 90C156.244 88.8954 157.14 88 158.244 88H198.244V92H158.244C157.14 92 156.244 91.1046 156.244 90V90Z" fill="#EDAA4F"/>
<path d="M40.2441 97.5C40.2441 96.6716 40.9157 96 41.7441 96H140.744C141.573 96 142.244 96.6716 142.244 97.5V97.5C142.244 98.3284 141.573 99 140.744 99H41.7441C40.9157 99 40.2441 98.3284 40.2441 97.5V97.5Z" fill="#E19E43"/>
<path d="M20.2441 103H31.2441C32.3487 103 33.2441 103.895 33.2441 105V105C33.2441 106.105 32.3487 107 31.2441 107H20.2441V103Z" fill="#EDAA4F"/>
</g>
<g clip-path="url(#clip1_366_158)">
<rect width="180.407" height="34" transform="translate(20.2441 130)" fill="#F5B55F"/>
<path d="M155.244 141C155.244 139.895 156.14 139 157.244 139H197.244V143H157.244C156.14 143 155.244 142.105 155.244 141V141Z" fill="#EDAA4F"/>
<path d="M109.244 157.5C109.244 156.672 109.916 156 110.744 156H139.744C140.573 156 141.244 156.672 141.244 157.5V157.5C141.244 158.328 140.573 159 139.744 159H110.744C109.916 159 109.244 158.328 109.244 157.5V157.5Z" fill="#E19E43"/>
<path d="M20.2441 142H94.7441C95.5726 142 96.2441 142.672 96.2441 143.5V143.5C96.2441 144.328 95.5726 145 94.7441 145H20.2441V142Z" fill="#EDAA4F"/>
</g>
<path d="M123.116 43.5C123.116 43.5 116.731 34.8397 110.447 31.5C104.361 28.2659 93.2168 27.5 93.2168 27.5" stroke="#98D48B" stroke-width="6" stroke-linecap="round"/>
<defs>
<clipPath id="clip0_366_158">
<rect width="180.407" height="27" fill="white" transform="translate(20.2441 83)"/>
</clipPath>
<clipPath id="clip1_366_158">
<rect width="180.407" height="34" fill="white" transform="translate(20.2441 130)"/>
</clipPath>
</defs>
</svg>
