<svg width="225" height="225" viewBox="0 0 225 225" fill="none" xmlns="http://www.w3.org/2000/svg">
<path d="M225 115C225 175.751 174.632 225 112.5 225C50.368 225 0 175.751 0 115C0 54.2487 50.368 5 112.5 5C174.632 5 225 54.2487 225 115ZM13.05 115C13.05 168.704 57.5753 212.24 112.5 212.24C167.425 212.24 211.95 168.704 211.95 115C211.95 61.2958 167.425 17.76 112.5 17.76C57.5753 17.76 13.05 61.2958 13.05 115Z" fill="#EC5348"/>
<circle cx="113" cy="115" r="100" fill="#FFD6D8"/>
<path d="M82.0309 72.0101C78.7228 68.6794 73.3409 68.661 70.0101 71.9691C66.6794 75.2772 66.661 80.6591 69.9691 83.9899L82.0309 72.0101ZM142.969 157.49C146.277 160.821 151.659 160.839 154.99 157.531C158.321 154.223 158.339 148.841 155.031 145.51L142.969 157.49ZM155.031 83.9899C158.339 80.6591 158.321 75.2772 154.99 71.9691C151.659 68.661 146.277 68.6794 142.969 72.0101L155.031 83.9899ZM69.9691 145.51C66.661 148.841 66.6794 154.223 70.0101 157.531C73.3409 160.839 78.7228 160.821 82.0309 157.49L69.9691 145.51ZM76 78L69.9691 83.9899L106.469 120.74L112.5 114.75L118.531 108.76L82.0309 72.0101L76 78ZM112.5 114.75L106.469 120.74L142.969 157.49L149 151.5L155.031 145.51L118.531 108.76L112.5 114.75ZM112.5 114.75L118.531 120.74L155.031 83.9899L149 78L142.969 72.0101L106.469 108.76L112.5 114.75ZM149 78L142.969 72.0101L69.9691 145.51L76 151.5L82.0309 157.49L155.031 83.9899L149 78Z" fill="#EC5348"/>
</svg>
